<mxfile host="app.diagrams.net" modified="2024-06-20T10:38:42.586Z" agent="Mozilla/5.0 (X11; Linux x86_64; rv:127.0) Gecko/20100101 Firefox/127.0" version="24.5.5" etag="GcLlpbMm9uZYC8WkyL-_" type="github">
  <diagram name="Page-1" id="Q-icqmIEf6c6swubnFuD">
    <mxGraphModel>
      <root>
        <mxCell id="0" />
        <mxCell id="1" parent="0" />
      </root>
    </mxGraphModel>
  </diagram>
</mxfile>
